<?xml version="1.0" standalone="no"?>
<!DOCTYPE svg PUBLIC "-//W3C//DTD SVG 20010904//EN"
 "http://www.w3.org/TR/2001/REC-SVG-20010904/DTD/svg10.dtd">
<svg version="1.0" xmlns="http://www.w3.org/2000/svg"
 width="1024.000000pt" height="1024.000000pt" viewBox="0 0 1024.000000 1024.000000"
 preserveAspectRatio="xMidYMid meet">

<g transform="translate(0.000000,1024.000000) scale(0.100000,-0.100000)"
fill="#000000" stroke="none">
<path d="M0 5120 l0 -5120 5120 0 5120 0 0 5120 0 5120 -5120 0 -5120 0 0
-5120z m4165 2757 c-44 -24 -119 -66 -167 -94 -47 -28 -85 -46 -84 -40 1 7 5
13 9 15 4 1 16 11 27 22 30 30 249 137 285 139 6 0 -26 -19 -70 -42z m2244
-81 c8 -9 11 -16 8 -16 -8 0 -137 81 -137 86 0 9 117 -55 129 -70z m259 -178
c30 -30 -11 -85 -44 -57 -14 12 -19 51 -7 62 10 11 38 8 51 -5z m-1123 -118
c196 -42 431 -132 588 -226 98 -59 245 -172 333 -256 45 -43 84 -78 88 -78 3
0 6 92 6 205 l0 205 525 0 525 0 -1 -927 c-1 -511 -5 -977 -9 -1038 l-7 -110
-2 85 c-3 73 -4 79 -11 45 -4 -22 -6 -43 -3 -47 2 -4 -2 -5 -10 -2 -11 4 -16
-9 -20 -52 -3 -31 -11 -62 -16 -67 -8 -8 -12 128 -13 459 -1 258 -3 525 -4
594 0 69 -2 313 -3 543 l-1 417 -425 0 -425 0 -1 -307 c0 -242 -3 -304 -12
-290 -68 106 -210 262 -228 251 -7 -4 -10 -3 -6 3 11 17 -116 124 -129 110 -3
-3 -30 14 -60 38 -29 24 -64 50 -76 56 -12 7 -36 25 -53 40 -16 16 -35 29 -42
29 -7 0 -47 18 -89 41 -225 121 -443 175 -744 186 -310 11 -574 -43 -854 -176
l-108 -50 -69 23 -68 23 22 21 c46 42 253 137 417 190 227 75 359 92 655 87
187 -3 249 -7 330 -25z m-1810 -200 l-90 -49 -417 -1 -418 0 -1 -467 c-1 -258
-2 -479 -3 -493 -1 -14 -4 -236 -6 -495 -2 -258 -6 -434 -7 -390 -4 80 -22
132 -24 64 0 -28 -2 -30 -9 -14 -5 11 -10 16 -11 10 -1 -5 -3 -14 -4 -20 -2
-5 -3 -28 -4 -49 -1 -25 -5 -36 -10 -30 -10 10 -23 1694 -14 1877 l5 107 551
0 552 0 -90 -50z m304 -290 c161 -20 388 -88 526 -157 347 -174 596 -467 685
-808 105 -404 44 -833 -164 -1149 -107 -162 -253 -302 -401 -385 -45 -25 -29
-11 65 56 64 46 205 177 214 199 2 6 -2 11 -10 11 -8 0 -14 -4 -14 -9 0 -11
-25 -38 -35 -38 -4 0 -5 7 -1 15 3 9 0 15 -9 15 -11 0 -12 -6 -5 -24 7 -19 5
-28 -8 -38 -15 -11 -16 -11 -4 3 11 14 9 17 -13 17 -14 0 -22 -5 -18 -11 4 -6
1 -7 -8 -1 -24 15 -38 13 -32 -4 4 -15 3 -15 -10 1 -18 21 -27 22 -27 1 0 -11
-6 -14 -20 -9 -16 5 -20 2 -20 -17 0 -16 -3 -19 -9 -10 -6 11 -21 8 -71 -13
-34 -14 -69 -24 -76 -21 -8 3 -14 1 -14 -5 0 -6 -5 -7 -10 -4 -16 10 -71 -5
-64 -17 4 -6 -2 -6 -14 1 -14 7 -23 8 -27 1 -3 -5 2 -10 12 -10 15 0 16 -2 3
-10 -25 -16 -40 -11 -41 13 l0 22 -9 -22 c-10 -24 -39 -32 -41 -10 0 10 -2 10
-6 0 -2 -7 -11 -13 -18 -13 -7 0 -16 -6 -18 -12 -4 -10 -8 -9 -16 2 -8 12 -12
12 -28 -1 -19 -16 -58 -15 -48 2 3 5 -1 6 -9 3 -9 -3 -16 -13 -16 -21 0 -10
-6 -12 -22 -7 -13 4 -41 8 -63 9 -29 1 -39 5 -37 15 1 9 -7 5 -18 -9 -12 -14
-20 -18 -20 -10 0 11 -2 11 -10 -1 -5 -8 -10 -10 -10 -5 0 7 -67 11 -187 12
-179 1 -187 0 -204 -21 l-18 -21 6 23 c6 26 -11 30 -27 5 -10 -16 -11 -16 -7
3 3 16 -2 25 -21 33 -13 7 -27 10 -29 7 -2 -2 5 -7 18 -11 16 -6 18 -9 8 -16
-8 -5 -17 -3 -21 4 -6 9 -11 7 -19 -5 -5 -10 -15 -18 -20 -18 -6 0 -3 7 5 16
19 18 19 21 4 30 -7 4 -8 3 -4 -4 4 -7 2 -12 -5 -12 -6 0 -39 -27 -73 -59
-120 -116 -393 -357 -426 -376 -33 -19 169 201 398 437 l124 127 327 3 c322 4
327 4 416 31 169 52 274 112 384 220 125 123 203 264 238 434 9 43 22 85 30
93 11 12 13 12 13 0 1 -12 2 -12 10 1 17 29 23 172 11 260 -16 119 -36 191
-76 276 -77 165 -176 287 -319 395 -82 62 -219 133 -236 123 -6 -3 -10 -2 -10
3 0 12 -137 55 -150 47 -5 -3 -11 -1 -14 4 -3 5 -16 7 -28 3 -16 -4 -19 -2
-13 8 6 10 -2 12 -41 7 -29 -4 -44 -3 -35 2 20 13 -296 25 -470 18 l-145 -6
-205 205 -204 206 470 -6 c259 -3 508 -10 554 -16z m1663 -3 c-13 -13 -27 -39
-32 -58 -6 -20 -10 -220 -10 -479 l0 -446 -66 11 -65 10 -25 75 c-34 101 -102
235 -163 322 l-51 72 0 258 0 258 217 0 216 0 -21 -23z m1590 -178 c-3 -208
-12 -270 -13 -91 0 65 -4 102 -11 102 -7 0 -9 21 -5 60 3 36 1 60 -5 60 -5 0
-6 6 -2 13 5 9 3 9 -7 -1 -11 -11 -15 -109 -22 -540 -4 -290 -6 -665 -5 -835
3 -270 1 -306 -12 -300 -18 9 -1496 17 -1556 8 -23 -3 -51 -15 -63 -26 l-21
-20 0 226 0 225 660 0 660 0 0 660 0 660 203 0 202 0 -3 -201z m-1072 -278 c6
-16 25 -35 41 -41 37 -16 37 -24 -2 -41 -20 -8 -37 -25 -46 -48 l-15 -36 -17
35 c-9 19 -28 41 -44 48 -34 17 -34 23 4 45 17 9 36 30 42 46 13 34 20 33 37
-8z m-3166 -68 c15 -17 37 -29 67 -33 l44 -7 -42 -2 c-23 0 -53 -5 -66 -10
-24 -9 -25 -8 -29 35 -2 24 -2 44 0 44 2 0 13 -12 26 -27z m359 -265 l-28 -42
-3 -643 -3 -643 -65 0 c-80 0 -107 -13 -173 -85 l-51 -57 -1 124 c-1 68 -4
152 -8 188 l-6 65 -17 -52 c-10 -28 -18 -71 -18 -94 0 -23 -2 -40 -5 -38 -2 3
-8 301 -11 662 l-7 657 212 0 211 0 -27 -42z m4737 -313 l-24 -26 -25 25 -25
25 24 26 24 26 25 -25 25 -25 -24 -26z m-4136 10 c4 -14 19 -32 34 -42 15 -9
29 -18 31 -20 3 -2 -11 -17 -31 -33 -20 -17 -38 -40 -40 -53 -3 -19 -6 -17
-21 16 -10 24 -27 42 -48 51 l-31 13 36 22 c20 13 39 34 42 47 8 31 20 31 28
-1z m-1501 -172 c-23 -2 -64 -2 -90 0 -26 2 -7 3 42 3 50 0 71 -1 48 -3z
m5385 0 c-32 -2 -84 -2 -115 0 -32 2 -6 3 57 3 63 0 89 -1 58 -3z m-3506 -219
c19 -6 20 -7 4 -16 -12 -7 -22 -6 -34 4 -18 15 -31 17 -48 6 -5 -4 -25 -6 -42
-6 l-32 1 31 19 c17 10 36 32 42 48 l11 29 23 -39 c13 -21 33 -42 45 -46z
m-2238 15 c24 -19 26 -26 26 -99 0 -99 -13 -118 -85 -122 l-50 -2 -3 122 -3
122 44 0 c30 0 53 -7 71 -21z m216 -79 l0 -100 35 0 c31 0 35 -3 35 -25 0 -21
-5 -25 -29 -25 -16 0 -43 3 -60 6 l-31 7 0 118 0 119 25 0 25 0 0 -100z m5656
92 c19 -13 34 -50 34 -86 0 -43 -29 -76 -65 -76 -22 0 -25 -4 -25 -34 0 -25
-5 -35 -19 -39 -25 -6 -31 25 -31 149 l0 94 48 0 c26 0 52 -4 58 -8z m214 -43
c0 -49 1 -50 28 -47 25 3 27 7 30 51 3 39 6 47 23 47 18 0 19 -8 19 -120 0
-113 -1 -120 -20 -120 -17 0 -20 7 -20 44 0 45 -15 61 -45 50 -11 -4 -15 -21
-15 -55 0 -41 -3 -49 -19 -49 -15 0 -19 11 -24 66 -4 36 -4 93 0 125 5 49 9
59 24 59 16 0 19 -8 19 -51z m-3886 -19 c-6 -6 -10 -3 -10 10 0 13 4 16 10 10
7 -7 7 -13 0 -20z m-1557 -212 c-3 -8 -6 -5 -6 6 -1 11 2 17 5 13 3 -3 4 -12
1 -19z m-312 -129 c5 -7 -5 -8 -32 -3 -51 9 -54 14 -10 14 20 0 39 -5 42 -11z
m5689 -262 c-3 -9 -10 -14 -15 -11 -6 3 -16 1 -23 -5 -9 -8 -18 -7 -31 3 -18
13 -18 15 6 44 l24 30 23 -22 c14 -14 20 -28 16 -39z m-2514 -109 c0 -73 -3
-171 -7 -218 -6 -72 -8 -80 -14 -50 -5 19 -11 86 -15 149 -5 77 -10 108 -15
93 -11 -29 -22 -28 -13 0 6 20 5 21 -10 9 -12 -10 -19 -11 -29 -2 -9 7 -17 7
-24 0 -7 -7 -12 -6 -16 4 -3 9 0 14 10 13 9 0 17 4 19 9 2 6 -17 10 -45 11
-27 0 -57 6 -66 14 -9 7 -15 9 -14 4 5 -30 -3 -54 -18 -54 -16 -1 -16 -2 1
-15 19 -15 19 -15 -1 -15 -11 0 -21 -6 -20 -12 0 -7 -1 -65 -3 -128 -3 -126
-16 -112 -20 20 -1 41 -5 84 -9 94 -7 17 -9 16 -29 -10 l-22 -29 12 30 c7 17
24 48 39 70 14 22 38 64 53 93 l26 52 115 0 115 0 0 -132z m1583 100 c-15 -28
-18 -65 -21 -255 -4 -269 -22 -304 -23 -45 -1 158 -2 174 -14 147 -8 -16 -14
-24 -15 -16 0 7 -6 11 -15 7 -8 -3 -15 -2 -15 3 0 5 -11 12 -24 15 -13 3 -27
16 -31 28 l-8 23 -4 -22 c-3 -15 -9 -20 -20 -16 -13 5 -15 2 -10 -11 6 -15 3
-17 -18 -12 -15 4 -25 2 -25 -4 0 -6 -5 -8 -10 -5 -20 12 -29 -48 -31 -208 0
-64 -5 -119 -9 -122 -4 -3 -10 45 -12 106 -3 96 -6 113 -23 125 -18 13 -20 29
-23 154 l-4 140 187 0 186 0 -18 -32z m-1763 -108 c0 -5 -7 -10 -15 -10 -8 0
-15 5 -15 10 0 6 7 10 15 10 8 0 15 -4 15 -10z m729 -163 c0 -12 -3 -16 -6 -9
-4 10 -8 10 -20 1 -12 -11 -12 -9 -2 14 14 30 29 27 28 -6z m-2319 -78 c0 -5
-4 -9 -10 -9 -5 0 -10 7 -10 16 0 8 5 12 10 9 6 -3 10 -10 10 -16z m80 1 c0
-5 -4 -10 -10 -10 -5 0 -10 5 -10 10 0 6 5 10 10 10 6 0 10 -4 10 -10z m610
-80 c-8 -5 -19 -10 -25 -10 -5 0 -3 5 5 10 8 5 20 10 25 10 6 0 3 -5 -5 -10z
m-95 -40 c-3 -5 -14 -10 -23 -9 -14 0 -13 2 3 9 27 11 27 11 20 0z m-1651
-1090 c66 -40 81 -78 85 -224 3 -143 -5 -188 -45 -236 -40 -47 -77 -61 -180
-67 l-94 -6 0 283 0 283 100 -6 c78 -4 107 -10 134 -27z m439 -35 c10 -33 43
-150 74 -260 30 -110 57 -208 60 -217 5 -15 -2 -18 -44 -18 l-50 0 -9 43 -9
42 -81 3 -82 3 -13 -43 c-14 -42 -15 -43 -61 -46 -27 -2 -48 -1 -48 1 0 3 9
33 19 68 17 53 53 188 122 452 10 38 10 38 57 35 l46 -3 19 -60z m382 -62 c32
-71 62 -140 67 -155 20 -58 28 -23 28 127 l0 155 40 0 40 0 0 -249 c0 -137 3
-263 6 -280 l7 -32 -44 3 -43 3 -56 127 c-30 69 -62 144 -72 165 -16 37 -16
35 -17 -129 l-1 -168 -40 0 -39 0 -3 276 c-2 152 -1 278 1 280 2 2 19 4 36 4
31 0 33 -3 90 -127z m437 -32 c37 -84 69 -156 72 -159 4 -3 6 68 6 157 l0 162
43 -3 42 -3 0 -275 0 -275 -40 -3 -40 -2 -69 165 c-38 91 -70 165 -71 165 -1
0 1 -74 3 -165 l5 -165 -47 0 -46 0 0 281 0 280 37 -3 37 -3 68 -154z m390 57
c77 -173 93 -208 98 -208 3 0 3 70 2 155 l-4 155 46 0 46 0 0 -280 0 -280 -37
0 -38 0 -45 108 c-25 59 -57 132 -72 162 l-26 55 -1 -162 -1 -163 -40 0 -40 0
0 280 0 280 34 0 c33 0 34 -2 78 -102z m408 -15 c25 -62 47 -113 50 -113 3 0
22 46 44 103 21 56 43 108 49 115 8 10 97 16 97 6 0 -2 -16 -38 -36 -81 -100
-219 -104 -233 -104 -358 l0 -115 -49 0 -49 0 5 103 6 103 -77 172 c-42 95
-76 175 -76 178 0 3 21 4 47 2 l47 -3 46 -112z m660 65 c0 -29 3 -83 7 -120
l6 -68 63 0 64 0 0 120 0 120 45 0 45 0 0 -280 0 -280 -45 0 -45 0 0 115 0
115 -64 0 c-63 0 -64 0 -70 -31 -3 -17 -6 -69 -6 -115 l0 -84 -46 0 -47 0 7
46 c3 26 6 152 6 280 l0 234 40 0 40 0 0 -52z m600 46 c0 -3 34 -127 75 -275
41 -148 75 -272 75 -275 0 -3 -21 -4 -47 -2 -48 3 -48 3 -57 46 l-9 42 -83 0
-82 0 -14 -42 c-14 -42 -16 -43 -63 -46 -42 -3 -47 -1 -43 15 27 94 101 366
118 433 12 47 23 91 26 98 3 12 104 18 104 6z m409 -190 c35 -107 67 -196 71
-199 4 -2 26 57 49 133 23 75 52 165 64 200 l21 62 48 0 48 0 0 -280 0 -280
-45 0 -44 0 -3 148 -3 147 -48 -147 -48 -148 -33 0 c-33 0 -34 0 -69 103 -19
56 -40 121 -46 145 -21 78 -31 46 -31 -103 l0 -145 -39 0 -38 0 -6 83 c-4 45
-7 171 -7 280 l0 197 48 0 47 -1 64 -195z m513 -39 c1 -129 2 -254 3 -277 l0
-43 -42 -3 -42 -3 -3 276 c-2 152 -1 279 1 281 2 2 22 4 43 4 l38 0 2 -235z
m366 209 c30 -23 70 -89 60 -99 -12 -12 -88 -18 -88 -7 0 21 -32 42 -65 42
-66 0 -78 -36 -73 -218 4 -138 15 -162 75 -162 27 0 37 6 51 30 15 26 23 30
61 30 l44 0 -7 -32 c-15 -77 -79 -121 -164 -115 -60 4 -97 27 -127 78 -18 30
-20 52 -20 199 0 155 1 167 24 206 13 23 37 49 55 58 43 22 137 17 174 -10z
m247 -256 c0 -153 -1 -278 -3 -278 -5 0 -76 53 -82 61 -3 4 -4 118 -2 254 l3
246 42 -3 42 -3 0 -277z m195 192 l0 -90 -45 0 -45 0 0 90 0 90 45 0 45 0 0
-90z m0 -368 l0 -58 -45 -22 -45 -22 0 80 0 80 45 0 45 0 0 -58z m-3771 -295
c16 -20 3 -27 -26 -16 -25 9 -43 5 -43 -11 0 -4 12 -11 27 -15 38 -9 53 -23
53 -51 0 -36 -39 -57 -78 -43 -48 17 -42 38 9 32 52 -7 51 14 -1 31 -38 12
-51 45 -30 72 16 18 74 18 89 1z m231 -47 l0 -60 35 0 c24 0 35 -5 35 -15 0
-11 -12 -15 -50 -15 l-50 0 0 75 c0 60 3 75 15 75 12 0 15 -13 15 -60z m376
45 c18 -13 16 -14 -21 -15 -46 0 -65 -14 -65 -45 0 -27 18 -45 46 -45 25 0 38
27 28 54 -7 18 3 21 25 7 17 -11 18 -56 1 -76 -17 -21 -83 -19 -109 3 -11 9
-24 31 -27 49 -12 61 70 107 122 68z m319 -10 c54 -53 20 -125 -60 -125 l-45
0 0 68 c0 38 3 72 7 75 16 17 75 6 98 -18z m315 10 c0 -10 -11 -15 -35 -15
-24 0 -35 -5 -35 -15 0 -10 10 -15 30 -15 20 0 30 -5 30 -15 0 -10 -10 -15
-30 -15 -42 0 -40 -28 2 -32 17 -2 33 -9 36 -15 3 -9 -11 -13 -50 -13 l-53 0
3 75 4 75 49 0 c37 0 49 -4 49 -15z m299 -55 c36 -81 36 -80 16 -80 -8 0 -15
5 -15 10 0 6 -18 10 -39 10 -22 0 -43 -4 -46 -10 -3 -5 -12 -10 -20 -10 -12 0
-12 6 -1 38 23 65 49 112 62 112 6 0 25 -32 43 -70z m321 55 c0 -8 -9 -15 -19
-15 -23 0 -31 -19 -31 -76 0 -32 -4 -44 -15 -44 -12 0 -15 13 -15 59 0 54 -2
60 -22 63 -12 2 -23 9 -26 16 -3 9 14 12 62 12 52 0 66 -3 66 -15z m223 -15
c10 -16 21 -30 25 -30 4 0 13 14 19 30 14 36 48 43 38 8 -4 -13 -13 -32 -20
-43 -7 -11 -16 -35 -19 -53 -9 -36 -36 -44 -36 -9 0 12 -11 42 -25 66 -14 23
-25 47 -25 52 0 20 27 7 43 -21z m301 5 c9 -14 20 -25 25 -25 4 0 13 11 19 25
6 14 18 25 27 25 20 0 19 -6 -10 -65 -14 -27 -25 -58 -25 -67 0 -30 -25 -20
-26 10 -1 16 -13 46 -27 68 -15 21 -27 42 -27 46 0 18 29 6 44 -17z"/>
<path d="M4986 4813 c-6 -14 -5 -15 5 -6 7 7 10 15 7 18 -3 3 -9 -2 -12 -12z"/>
<path d="M4138 4573 c7 -3 16 -2 19 1 4 3 -2 6 -13 5 -11 0 -14 -3 -6 -6z"/>
<path d="M3207 5101 c6 -22 -12 -29 -21 -8 -3 8 -8 7 -16 -6 -7 -11 -18 -16
-29 -12 -25 8 -31 -28 -31 -173 l0 -115 57 56 58 57 67 0 68 0 0 39 c0 67 -13
161 -21 161 -5 0 -9 -8 -9 -19 0 -14 -6 -17 -25 -13 -14 2 -22 8 -20 13 3 4
12 6 20 2 8 -3 15 0 15 7 0 9 -11 10 -35 6 -24 -5 -42 -2 -59 9 -23 16 -24 15
-19 -4z"/>
<path d="M2090 5435 c0 -74 1 -76 23 -73 20 3 22 8 22 73 0 65 -2 70 -22 73
-22 3 -23 1 -23 -73z"/>
<path d="M7970 5475 c0 -28 4 -35 19 -35 10 0 21 8 23 18 7 29 -3 52 -23 52
-15 0 -19 -7 -19 -35z"/>
<path d="M2690 3070 l0 -190 30 0 c86 0 110 44 110 205 0 115 0 117 -29 146
-23 23 -39 29 -70 29 l-41 0 0 -190z"/>
<path d="M3200 3189 c0 -19 -11 -74 -25 -124 -14 -49 -25 -91 -25 -92 0 -2 27
-3 60 -3 33 0 60 2 60 6 0 12 -61 238 -65 243 -3 2 -5 -11 -5 -30z"/>
<path d="M6090 3193 c0 -25 -26 -144 -46 -205 -5 -16 2 -18 55 -18 34 0 61 3
61 8 -2 20 -57 232 -63 238 -4 4 -7 -6 -7 -23z"/>
<path d="M4966 2565 c-3 -9 -6 -30 -6 -46 0 -24 4 -29 24 -29 34 0 52 25 40
58 -11 31 -48 42 -58 17z"/>
<path d="M5596 2545 c-10 -26 -7 -35 9 -35 17 0 19 18 6 38 -7 11 -10 10 -15
-3z"/>
</g>
</svg>
